<svg width="1492" height="358" viewBox="0 0 1492 358" fill="none" xmlns="http://www.w3.org/2000/svg">
<path d="M164.637 41.9437L132.989 43.7777C75.1765 48.2489 26.0288 83.7566 1.40137 133.063C-4.50198 144.87 9.48802 156.992 20.2292 149.341C47.3709 130.024 80.2419 119.3 114.979 119.3H163.934C171.043 119.3 176.806 125.064 176.806 132.172V148.45C176.806 158.772 188.334 164.868 196.875 159.087L296.936 91.3031C304.446 86.2033 304.446 75.1124 296.936 70.0125L196.875 2.22886C188.334 -3.53499 176.806 2.54324 176.806 12.8654V29.1434C176.806 35.9374 171.479 41.5787 164.685 41.9807L164.637 41.9437Z" fill="#FF9C27"/>
<path d="M143.363 315.663L175.011 313.829C232.824 309.358 281.971 273.85 306.599 224.543C312.502 212.736 298.512 200.615 287.771 208.265C260.629 227.582 227.758 238.306 193.021 238.306H144.066C136.957 238.306 131.194 232.543 131.194 225.434V209.156C131.194 198.834 119.666 192.738 111.125 198.52L11.0641 266.303C3.55379 271.403 3.55379 282.494 11.0641 287.594L111.125 355.378C119.666 361.141 131.194 355.063 131.194 344.741V328.463C131.194 321.669 136.521 316.028 143.315 315.626L143.363 315.663Z" fill="#063E8D"/>
<path d="M392.824 136.68V154.856H422.136V171.752H392.824V191.464H425.976V209H370.936V119.144H425.976V136.68H392.824ZM462.074 147.688C464.122 144.36 467.066 141.672 470.906 139.624C474.746 137.576 479.141 136.552 484.09 136.552C489.978 136.552 495.311 138.045 500.09 141.032C504.869 144.019 508.623 148.285 511.354 153.832C514.17 159.379 515.578 165.821 515.578 173.16C515.578 180.499 514.17 186.984 511.354 192.616C508.623 198.163 504.869 202.472 500.09 205.544C495.311 208.531 489.978 210.024 484.09 210.024C479.055 210.024 474.661 209.043 470.906 207.08C467.151 205.032 464.207 202.344 462.074 199.016V209H440.186V114.28H462.074V147.688ZM493.306 173.16C493.306 167.699 491.77 163.432 488.698 160.36C485.711 157.203 481.999 155.624 477.562 155.624C473.21 155.624 469.498 157.203 466.426 160.36C463.439 163.517 461.946 167.827 461.946 173.288C461.946 178.749 463.439 183.059 466.426 186.216C469.498 189.373 473.21 190.952 477.562 190.952C481.914 190.952 485.626 189.373 488.698 186.216C491.77 182.973 493.306 178.621 493.306 173.16ZM522.709 173.16C522.709 165.821 524.074 159.379 526.805 153.832C529.621 148.285 533.418 144.019 538.197 141.032C542.976 138.045 548.309 136.552 554.197 136.552C559.232 136.552 563.626 137.576 567.381 139.624C571.221 141.672 574.165 144.36 576.213 147.688V137.576H598.101V209H576.213V198.888C574.08 202.216 571.093 204.904 567.253 206.952C563.498 209 559.104 210.024 554.069 210.024C548.266 210.024 542.976 208.531 538.197 205.544C533.418 202.472 529.621 198.163 526.805 192.616C524.074 186.984 522.709 180.499 522.709 173.16ZM576.213 173.288C576.213 167.827 574.677 163.517 571.605 160.36C568.618 157.203 564.949 155.624 560.597 155.624C556.245 155.624 552.533 157.203 549.461 160.36C546.474 163.432 544.981 167.699 544.981 173.16C544.981 178.621 546.474 182.973 549.461 186.216C552.533 189.373 556.245 190.952 560.597 190.952C564.949 190.952 568.618 189.373 571.605 186.216C574.677 183.059 576.213 178.749 576.213 173.288ZM609.584 173.16C609.584 165.821 610.949 159.379 613.68 153.832C616.496 148.285 620.293 144.019 625.072 141.032C629.851 138.045 635.184 136.552 641.072 136.552C645.765 136.552 650.032 137.533 653.872 139.496C657.797 141.459 660.869 144.104 663.088 147.432V114.28H684.976V209H663.088V198.76C661.04 202.173 658.096 204.904 654.256 206.952C650.501 209 646.107 210.024 641.072 210.024C635.184 210.024 629.851 208.531 625.072 205.544C620.293 202.472 616.496 198.163 613.68 192.616C610.949 186.984 609.584 180.499 609.584 173.16ZM663.088 173.288C663.088 167.827 661.552 163.517 658.48 160.36C655.493 157.203 651.824 155.624 647.472 155.624C643.12 155.624 639.408 157.203 636.336 160.36C633.349 163.432 631.856 167.699 631.856 173.16C631.856 178.621 633.349 182.973 636.336 186.216C639.408 189.373 643.12 190.952 647.472 190.952C651.824 190.952 655.493 189.373 658.48 186.216C661.552 183.059 663.088 178.749 663.088 173.288ZM696.459 173.16C696.459 165.821 697.824 159.379 700.555 153.832C703.371 148.285 707.168 144.019 711.947 141.032C716.726 138.045 722.059 136.552 727.947 136.552C732.982 136.552 737.376 137.576 741.131 139.624C744.971 141.672 747.915 144.36 749.963 147.688V137.576H771.851V209H749.963V198.888C747.83 202.216 744.843 204.904 741.003 206.952C737.248 209 732.854 210.024 727.819 210.024C722.016 210.024 716.726 208.531 711.947 205.544C707.168 202.472 703.371 198.163 700.555 192.616C697.824 186.984 696.459 180.499 696.459 173.16ZM749.963 173.288C749.963 167.827 748.427 163.517 745.355 160.36C742.368 157.203 738.699 155.624 734.347 155.624C729.995 155.624 726.283 157.203 723.211 160.36C720.224 163.432 718.731 167.699 718.731 173.16C718.731 178.621 720.224 182.973 723.211 186.216C726.283 189.373 729.995 190.952 734.347 190.952C738.699 190.952 742.368 189.373 745.355 186.216C748.427 183.059 749.963 178.749 749.963 173.288ZM809.574 114.28V209H787.686V114.28H809.574Z" fill="#063E8D"/>
<path d="M874.449 136.68V154.856H903.761V171.752H874.449V191.464H907.601V209H852.561V119.144H907.601V136.68H874.449ZM964.051 209L950.355 189.16L938.835 209H915.155L938.707 172.52L914.515 137.576H939.091L952.787 157.288L964.307 137.576H987.987L964.051 173.544L988.627 209H964.051ZM992.709 173.288C992.709 165.864 994.202 159.379 997.189 153.832C1000.26 148.285 1004.49 144.019 1009.86 141.032C1015.32 138.045 1021.55 136.552 1028.55 136.552C1037.51 136.552 1044.98 138.899 1050.95 143.592C1057.01 148.285 1060.98 154.899 1062.85 163.432H1039.56C1037.59 157.971 1033.8 155.24 1028.17 155.24C1024.15 155.24 1020.95 156.819 1018.57 159.976C1016.18 163.048 1014.98 167.485 1014.98 173.288C1014.98 179.091 1016.18 183.571 1018.57 186.728C1020.95 189.8 1024.15 191.336 1028.17 191.336C1033.8 191.336 1037.59 188.605 1039.56 183.144H1062.85C1060.98 191.507 1057.01 198.077 1050.95 202.856C1044.89 207.635 1037.42 210.024 1028.55 210.024C1021.55 210.024 1015.32 208.531 1009.86 205.544C1004.49 202.557 1000.26 198.291 997.189 192.744C994.202 187.197 992.709 180.712 992.709 173.288ZM1118.47 136.808C1126.66 136.808 1133.23 139.539 1138.18 145C1143.13 150.376 1145.6 157.8 1145.6 167.272V209H1123.84V170.216C1123.84 165.437 1122.6 161.725 1120.13 159.08C1117.65 156.435 1114.33 155.112 1110.15 155.112C1105.96 155.112 1102.64 156.435 1100.16 159.08C1097.69 161.725 1096.45 165.437 1096.45 170.216V209H1074.56V114.28H1096.45V147.176C1098.67 144.019 1101.7 141.501 1105.54 139.624C1109.38 137.747 1113.69 136.808 1118.47 136.808ZM1156.46 173.16C1156.46 165.821 1157.82 159.379 1160.56 153.832C1163.37 148.285 1167.17 144.019 1171.95 141.032C1176.73 138.045 1182.06 136.552 1187.95 136.552C1192.98 136.552 1197.38 137.576 1201.13 139.624C1204.97 141.672 1207.92 144.36 1209.96 147.688V137.576H1231.85V209H1209.96V198.888C1207.83 202.216 1204.84 204.904 1201 206.952C1197.25 209 1192.85 210.024 1187.82 210.024C1182.02 210.024 1176.73 208.531 1171.95 205.544C1167.17 202.472 1163.37 198.163 1160.56 192.616C1157.82 186.984 1156.46 180.499 1156.46 173.16ZM1209.96 173.288C1209.96 167.827 1208.43 163.517 1205.36 160.36C1202.37 157.203 1198.7 155.624 1194.35 155.624C1190 155.624 1186.28 157.203 1183.21 160.36C1180.22 163.432 1178.73 167.699 1178.73 173.16C1178.73 178.621 1180.22 182.973 1183.21 186.216C1186.28 189.373 1190 190.952 1194.35 190.952C1198.7 190.952 1202.37 189.373 1205.36 186.216C1208.43 183.059 1209.96 178.749 1209.96 173.288ZM1291.21 136.808C1299.57 136.808 1306.22 139.539 1311.17 145C1316.21 150.376 1318.73 157.8 1318.73 167.272V209H1296.97V170.216C1296.97 165.437 1295.73 161.725 1293.25 159.08C1290.78 156.435 1287.45 155.112 1283.27 155.112C1279.09 155.112 1275.76 156.435 1273.29 159.08C1270.81 161.725 1269.57 165.437 1269.57 170.216V209H1247.69V137.576H1269.57V147.048C1271.79 143.891 1274.78 141.416 1278.53 139.624C1282.29 137.747 1286.51 136.808 1291.21 136.808ZM1361.07 136.552C1366.11 136.552 1370.5 137.576 1374.26 139.624C1378.1 141.672 1381.04 144.36 1383.09 147.688V137.576H1404.98V208.872C1404.98 215.443 1403.65 221.373 1401.01 226.664C1398.45 232.04 1394.48 236.307 1389.1 239.464C1383.81 242.621 1377.2 244.2 1369.26 244.2C1358.68 244.2 1350.11 241.683 1343.54 236.648C1336.97 231.699 1333.21 224.957 1332.27 216.424H1353.9C1354.59 219.155 1356.21 221.288 1358.77 222.824C1361.33 224.445 1364.49 225.256 1368.24 225.256C1372.76 225.256 1376.35 223.933 1378.99 221.288C1381.72 218.728 1383.09 214.589 1383.09 208.872V198.76C1380.95 202.088 1378.01 204.819 1374.26 206.952C1370.5 209 1366.11 210.024 1361.07 210.024C1355.18 210.024 1349.85 208.531 1345.07 205.544C1340.29 202.472 1336.5 198.163 1333.68 192.616C1330.95 186.984 1329.58 180.499 1329.58 173.16C1329.58 165.821 1330.95 159.379 1333.68 153.832C1336.5 148.285 1340.29 144.019 1345.07 141.032C1349.85 138.045 1355.18 136.552 1361.07 136.552ZM1383.09 173.288C1383.09 167.827 1381.55 163.517 1378.48 160.36C1375.49 157.203 1371.82 155.624 1367.47 155.624C1363.12 155.624 1359.41 157.203 1356.34 160.36C1353.35 163.432 1351.86 167.699 1351.86 173.16C1351.86 178.621 1353.35 182.973 1356.34 186.216C1359.41 189.373 1363.12 190.952 1367.47 190.952C1371.82 190.952 1375.49 189.373 1378.48 186.216C1381.55 183.059 1383.09 178.749 1383.09 173.288ZM1488.14 172.136C1488.14 174.184 1488.01 176.317 1487.76 178.536H1438.22C1438.56 182.973 1439.97 186.387 1442.44 188.776C1445 191.08 1448.12 192.232 1451.79 192.232C1457.25 192.232 1461.05 189.928 1463.18 185.32H1486.48C1485.28 190.013 1483.1 194.237 1479.95 197.992C1476.88 201.747 1472.99 204.691 1468.3 206.824C1463.61 208.957 1458.36 210.024 1452.56 210.024C1445.56 210.024 1439.33 208.531 1433.87 205.544C1428.41 202.557 1424.14 198.291 1421.07 192.744C1418 187.197 1416.46 180.712 1416.46 173.288C1416.46 165.864 1417.95 159.379 1420.94 153.832C1424.01 148.285 1428.28 144.019 1433.74 141.032C1439.2 138.045 1445.47 136.552 1452.56 136.552C1459.47 136.552 1465.61 138.003 1470.99 140.904C1476.36 143.805 1480.54 147.944 1483.53 153.32C1486.6 158.696 1488.14 164.968 1488.14 172.136ZM1465.74 166.376C1465.74 162.621 1464.46 159.635 1461.9 157.416C1459.34 155.197 1456.14 154.088 1452.3 154.088C1448.63 154.088 1445.52 155.155 1442.96 157.288C1440.48 159.421 1438.94 162.451 1438.35 166.376H1465.74Z" fill="#FF9C27"/>
</svg>