<svg width="550" height="550" viewBox="0 0 550 550" fill="none" xmlns="http://www.w3.org/2000/svg">
<circle cx="275" cy="275" r="275" fill="#E72830"/>
<path d="M106.364 255.818C106.061 252.485 104.712 249.894 102.318 248.045C99.9545 246.167 96.5758 245.227 92.1818 245.227C89.2727 245.227 86.8485 245.606 84.9091 246.364C82.9697 247.121 81.5152 248.167 80.5455 249.5C79.5758 250.803 79.0758 252.303 79.0455 254C78.9848 255.394 79.2576 256.621 79.8636 257.682C80.5 258.742 81.4091 259.682 82.5909 260.5C83.803 261.288 85.2576 261.985 86.9545 262.591C88.6515 263.197 90.5606 263.727 92.6818 264.182L100.682 266C105.288 267 109.348 268.333 112.864 270C116.409 271.667 119.379 273.652 121.773 275.955C124.197 278.258 126.03 280.909 127.273 283.909C128.515 286.909 129.152 290.273 129.182 294C129.152 299.879 127.667 304.924 124.727 309.136C121.788 313.348 117.561 316.576 112.045 318.818C106.561 321.061 99.9394 322.182 92.1818 322.182C84.3939 322.182 77.6061 321.015 71.8182 318.682C66.0303 316.348 61.5303 312.803 58.3182 308.045C55.1061 303.288 53.4545 297.273 53.3636 290H74.9091C75.0909 293 75.8939 295.5 77.3182 297.5C78.7424 299.5 80.697 301.015 83.1818 302.045C85.697 303.076 88.6061 303.591 91.9091 303.591C94.9394 303.591 97.5152 303.182 99.6364 302.364C101.788 301.545 103.439 300.409 104.591 298.955C105.742 297.5 106.333 295.833 106.364 293.955C106.333 292.197 105.788 290.697 104.727 289.455C103.667 288.182 102.03 287.091 99.8182 286.182C97.6364 285.242 94.8485 284.379 91.4545 283.591L81.7273 281.318C73.6667 279.47 67.3182 276.485 62.6818 272.364C58.0455 268.212 55.7424 262.606 55.7727 255.545C55.7424 249.788 57.2879 244.742 60.4091 240.409C63.5303 236.076 67.8485 232.697 73.3636 230.273C78.8788 227.848 85.1667 226.636 92.2273 226.636C99.4394 226.636 105.697 227.864 111 230.318C116.333 232.742 120.47 236.152 123.409 240.545C126.348 244.939 127.848 250.03 127.909 255.818H106.364ZM157.807 321H133.625L165.034 227.909H194.989L226.398 321H202.216L180.352 251.364H179.625L157.807 321ZM154.58 284.364H205.125V301.455H154.58V284.364ZM236.42 321V227.909H258.92V265.273H295.602V227.909H318.057V321H295.602V283.591H258.92V321H236.42ZM352.307 321H328.125L359.534 227.909H389.489L420.898 321H396.716L374.852 251.364H374.125L352.307 321ZM349.08 284.364H399.625V301.455H349.08V284.364ZM430.92 321V227.909H453.42V302.727H492.148V321H430.92Z" fill="white"/>
</svg>
