<svg width="560" height="560" viewBox="0 0 560 560" fill="none" xmlns="http://www.w3.org/2000/svg">
<path d="M280 560C434.64 560 560 434.64 560 280C560 125.36 434.64 0 280 0C125.36 0 0 125.36 0 280C0 434.64 125.36 560 280 560Z" fill="#26A17B"/>
<path fill-rule="evenodd" clip-rule="evenodd" d="M313.636 304.204V304.169C311.711 304.309 301.788 304.904 279.651 304.904C261.976 304.904 249.533 304.379 245.158 304.169V304.222C177.118 301.229 126.333 289.382 126.333 275.207C126.333 261.049 177.118 249.202 245.158 246.157V292.427C249.603 292.742 262.343 293.494 279.948 293.494C301.071 293.494 311.658 292.619 313.636 292.444V246.192C381.536 249.219 432.198 261.067 432.198 275.207C432.198 289.382 381.536 301.194 313.636 304.204ZM313.636 241.379V199.974H408.381V136.834H150.413V199.974H245.158V241.362C168.158 244.897 110.251 260.157 110.251 278.427C110.251 296.697 168.158 311.939 245.158 315.492V448.177H313.636V315.457C390.513 311.922 448.281 296.679 448.281 278.427C448.281 260.174 390.513 244.932 313.636 241.379Z" fill="white"/>
</svg>
