<svg width="550" height="550" viewBox="0 0 550 550" fill="none" xmlns="http://www.w3.org/2000/svg">
<circle cx="275" cy="275" r="275" fill="#F3BA2F"/>
<path d="M101.727 323V310.182L146.955 248.182H101.773V229.909H175.409V242.727L130.182 304.727H175.364V323H101.727ZM209.307 323H185.125L216.534 229.909H246.489L277.898 323H253.716L231.852 253.364H231.125L209.307 323ZM206.08 286.364H256.625V303.455H206.08V286.364ZM308.057 323H283.875L315.284 229.909H345.239L376.648 323H352.466L330.602 253.364H329.875L308.057 323ZM304.83 286.364H355.375V303.455H304.83V286.364ZM421.08 323H386.67V229.909H421.034C430.519 229.909 438.686 231.773 445.534 235.5C452.413 239.197 457.716 244.53 461.443 251.5C465.17 258.439 467.034 266.742 467.034 276.409C467.034 286.106 465.17 294.439 461.443 301.409C457.746 308.379 452.458 313.727 445.58 317.455C438.701 321.152 430.534 323 421.08 323ZM409.17 303.818H420.216C425.428 303.818 429.837 302.939 433.443 301.182C437.08 299.394 439.822 296.5 441.67 292.5C443.549 288.47 444.489 283.106 444.489 276.409C444.489 269.712 443.549 264.379 441.67 260.409C439.792 256.409 437.019 253.53 433.352 251.773C429.716 249.985 425.231 249.091 419.898 249.091H409.17V303.818Z" fill="white"/>
</svg>
